<svg width="89" height="80" viewBox="0 0 89 80" fill="none" xmlns="http://www.w3.org/2000/svg">
<path d="M1.20608 73.2369C3.0134 68.769 8.16832 66.6397 12.6362 68.447C14.261 69.1043 15.07 70.9642 14.4128 72.589L13.7371 74.2594C12.5134 77.2844 9.06927 78.7446 6.04432 77.521L2.39688 76.0455C1.29247 75.5988 0.759327 74.3413 1.20608 73.2369Z" fill="#D9D9D9"/>
<path d="M64.0527 19.1463L56.886 25.0207L54.8788 17.8391L64.0527 19.1463Z" fill="#D9D9D9"/>
<path d="M33.662 54.5971L30.5354 50.7799L36.2104 50.372L33.662 54.5971Z" fill="#D9D9D9"/>
<path d="M81.4422 26.0547L79.0998 27.3149L78.8434 25.4881L81.4422 26.0547Z" fill="#D9D9D9"/>
<path d="M73.9409 44.2552C74.2119 42.1684 75.8828 42.6119 76.6843 43.0946C77.1964 43.4705 76.0873 45.196 75.682 45.5334C75.2767 45.8708 73.6021 46.8636 73.9409 44.2552Z" fill="#D9D9D9"/>
<path d="M86.4354 12.0964C88.3842 12.8903 87.5294 14.3929 86.8585 15.045C86.3645 15.4444 84.9786 13.9322 84.7556 13.4543C84.5327 12.9764 83.9994 11.104 86.4354 12.0964Z" fill="#D9D9D9"/>
<path d="M45.5635 0.825872C47.3924 0.500543 46.2439 2.49108 45.4411 3.52702C44.8651 4.20913 43.7418 3.4944 43.605 3.14517C43.4682 2.79594 43.2774 1.23253 45.5635 0.825872Z" fill="#D9D9D9"/>
</svg>
