<svg width="45" height="32" viewBox="0 0 45 32" fill="none" xmlns="http://www.w3.org/2000/svg">
<path d="M2.42969 16.3344C1.59032 12.9862 3.62409 9.59153 6.97226 8.75215C10.3204 7.91277 13.7151 9.94655 14.5545 13.2947L14.628 13.588C15.1402 15.6312 13.8991 17.7027 11.856 18.2149L7.13016 19.3997C5.08699 19.9119 3.01544 18.6708 2.50322 16.6277L2.42969 16.3344Z" stroke="#CCCCCC" stroke-width="1.5"/>
<path d="M15.0395 13.1731C14.2001 9.82495 16.2339 6.43027 19.5821 5.59089C22.9302 4.75152 26.3249 6.78529 27.1643 10.1335L27.2378 10.4267C27.75 12.4699 26.5089 14.5415 24.4658 15.0537L19.74 16.2384C17.6968 16.7507 15.6252 15.5096 15.113 13.4664L15.0395 13.1731Z" stroke="#CCCCCC" stroke-width="1.5"/>
<path d="M27.6492 10.0119C26.8099 6.66369 28.8436 3.26902 32.1918 2.42964C35.54 1.59026 38.9346 3.62404 39.774 6.97221L39.8476 7.26549C40.3598 9.30866 39.1187 11.3802 37.0755 11.8924L32.3497 13.0772C30.3065 13.5894 28.235 12.3483 27.7228 10.3051L27.6492 10.0119Z" stroke="#CCCCCC" stroke-width="1.5"/>
<path d="M4.59034 24.9527C5.42972 28.3008 8.8244 30.3346 12.1726 29.4952C15.5207 28.6559 17.5545 25.2612 16.7151 21.913L16.6416 21.6197C16.1294 19.5766 14.0578 18.3355 12.0147 18.8477L7.28886 20.0324C5.24569 20.5447 4.0046 22.6162 4.51682 24.6594L4.59034 24.9527Z" stroke="#CCCCCC" stroke-width="1.5"/>
<path d="M17.2001 21.7915C18.0395 25.1396 21.4341 27.1734 24.7823 26.334C28.1305 25.4947 30.1643 22.1 29.3249 18.7518L29.2513 18.4585C28.7391 16.4154 26.6676 15.1743 24.6244 15.6865L19.8986 16.8712C17.8554 17.3835 16.6143 19.455 17.1266 21.4982L17.2001 21.7915Z" stroke="#CCCCCC" stroke-width="1.5"/>
<path d="M29.8099 18.6302C30.6493 21.9784 34.0439 24.0122 37.3921 23.1728C40.7403 22.3334 42.7741 18.9387 41.9347 15.5906L41.8612 15.2973C41.3489 13.2541 39.2774 12.013 37.2342 12.5252L32.5084 13.71C30.4652 14.2222 29.2241 16.2938 29.7364 18.3369L29.8099 18.6302Z" stroke="#CCCCCC" stroke-width="1.5"/>
</svg>
