<svg width="44" height="58" viewBox="0 0 44 58" fill="none" xmlns="http://www.w3.org/2000/svg">
<path d="M25.2989 18.9384L26.2131 15.5599L27.4441 11.01C27.655 10.2306 28.2292 9.6011 28.986 9.3197L35.843 6.76988" stroke="white" stroke-width="2"/>
<path d="M24.384 53.5773L35.3039 22.1634L14.0675 16.4175L7.65806 49.0518C7.40511 50.3398 8.19126 51.604 9.45826 51.9469L21.3697 55.1697C22.6367 55.5125 23.9531 54.8171 24.384 53.5773Z" fill="#D9D9D9"/>
<path d="M10.2064 15.3728L14.0675 16.4175M39.6477 23.3387L35.3039 22.1634M35.3039 22.1634L24.384 53.5773C23.9531 54.8171 22.6367 55.5125 21.3697 55.1697L9.45826 51.9469C8.19126 51.604 7.40511 50.3398 7.65806 49.0518L14.0675 16.4175M35.3039 22.1634L14.0675 16.4175" stroke="#D9D9D9" stroke-width="2"/>
</svg>
