<svg width="43" height="46" viewBox="0 0 43 46" fill="none" xmlns="http://www.w3.org/2000/svg">
<path d="M1.88889 18.5C0.402849 27.7877 1.12512 38.1796 1.59448 42.9073C1.74252 44.3985 3.00504 45.5 4.5035 45.5H38.6223C40.1851 45.5 41.4837 44.3068 41.5862 42.7473C41.9365 37.4189 42.5285 25.9189 41.3889 22.5C40.2442 19.066 38.2261 8.35282 37.3341 3.46982C37.0725 2.03779 35.8277 1 34.3719 1H32.8889C31.232 1 29.8889 2.34315 29.8889 4V11C29.8889 12.6569 28.5457 14 26.8889 14H15.3889C13.732 14 12.3889 12.6569 12.3889 11V4C12.3889 2.34315 11.0457 1 9.38889 1H7.91999C6.69327 1 5.60263 1.75026 5.24593 2.92397C4.49617 5.39103 3.19253 10.3523 1.88889 18.5Z" fill="#D9D9D9" stroke="#D9D9D9"/>
</svg>
