<svg width="472" height="197" viewBox="0 0 472 197" fill="none" xmlns="http://www.w3.org/2000/svg">
<path d="M470.333 26.1856L458.939 190.689L322.172 98.5693L470.333 26.1856Z" fill="#D39C9C"/>
<path d="M86.0001 12.0002C155.5 -6.49976 271.5 -1.49988 342 41.5001C357.332 50.8514 368.208 59.577 375.736 67.5001C389.514 81.9994 392.082 93.8115 390.237 101.853C390.184 102.084 390.16 102.316 390.167 102.552C390.965 126.85 374.23 156.66 313.5 180.5C232.904 212.139 114.828 180.117 41 150.232C28.2185 145.058 16.7632 139.948 7.05831 135.244C5.19103 134.339 5.20694 131.69 7.07485 130.786L44.4252 112.714C46.2931 111.81 46.3129 109.167 44.4421 108.269C30.4352 101.548 7.86685 91.8535 2.50005 94.0002C-4.99995 97.0002 16.5001 30.5002 86.0001 12.0002Z" fill="#D39C9C"/>
<path d="M470.333 26.1856L458.939 190.689L322.172 98.5693L470.333 26.1856Z" stroke="#D39C9C" stroke-width="2"/>
<path d="M86.0001 12.0002C155.5 -6.49976 271.5 -1.49988 342 41.5001C357.332 50.8514 368.208 59.577 375.736 67.5001C389.514 81.9994 392.082 93.8115 390.237 101.853C390.184 102.084 390.16 102.316 390.167 102.552C390.965 126.85 374.23 156.66 313.5 180.5C232.904 212.139 114.828 180.117 41 150.232C28.2185 145.058 16.7632 139.948 7.05831 135.244C5.19103 134.339 5.20694 131.69 7.07485 130.786L44.4252 112.714C46.2931 111.81 46.3129 109.167 44.4421 108.269C30.4352 101.548 7.86685 91.8535 2.50005 94.0002C-4.99995 97.0002 16.5001 30.5002 86.0001 12.0002Z" stroke="#D39C9C" stroke-width="2"/>
<path d="M64.3037 52L84.9958 73.2998" stroke="black" stroke-width="8" stroke-linecap="round"/>
<path d="M63.9999 72.996L85.2997 52.3039" stroke="black" stroke-width="8" stroke-linecap="round"/>
<path d="M142 152C145.684 139.371 153.642 98.2914 156 35" stroke="black" stroke-width="3" stroke-linecap="round"/>
<path d="M182 155C185.684 142.371 193.642 101.291 196 38" stroke="black" stroke-width="3" stroke-linecap="round"/>
<path d="M222 156C225.684 143.371 233.642 102.291 236 39" stroke="black" stroke-width="3" stroke-linecap="round"/>
<path d="M291.576 132.569C274.367 129.619 218.559 124.046 133 125.352" stroke="black" stroke-width="3" stroke-linecap="round"/>
<path d="M293.576 99.9872C276.367 97.0372 220.559 91.464 135 92.7708" stroke="black" stroke-width="3" stroke-linecap="round"/>
<path d="M293.576 66.9872C276.367 64.0372 220.559 58.464 135 59.7708" stroke="black" stroke-width="3" stroke-linecap="round"/>
<path d="M266 158C269.684 145.371 277.642 104.291 280 41" stroke="black" stroke-width="3" stroke-linecap="round"/>
</svg>
