<svg width="630" height="302" viewBox="0 0 630 302" fill="none" xmlns="http://www.w3.org/2000/svg">
<path d="M472.333 73.1854L460.939 237.689L324.172 145.569L472.333 73.1854Z" fill="#A5A5A5"/>
<path d="M88.0001 59.0001C157.5 40.5001 273.5 45.5 344 88.5C359.332 97.8513 370.208 106.577 377.736 114.5C391.712 129.208 394.154 141.151 392.154 149.198C393.127 173.559 376.526 203.543 315.5 227.5C234.904 259.139 116.828 227.116 43 197.232C30.2185 192.058 18.7632 186.948 9.05831 182.244C7.19103 181.338 7.20694 178.69 9.07485 177.786L27.75 168.75L46.4252 159.714C48.2931 158.81 48.3129 156.167 46.4421 155.269C32.4352 148.548 9.86685 138.853 4.50005 141C-2.99995 144 18.5001 77.5001 88.0001 59.0001Z" fill="#A5A5A5"/>
<path d="M387.5 157.5C394.054 151.189 397.903 135.723 377.736 114.5M377.736 114.5C370.208 106.577 359.332 97.8513 344 88.5C273.5 45.5 157.5 40.5001 88.0001 59.0001C18.5001 77.5001 -2.99995 144 4.50005 141C9.86685 138.853 32.4352 148.548 46.4421 155.269C48.3129 156.167 48.2931 158.81 46.4252 159.714L27.75 168.75L9.07485 177.786C7.20694 178.69 7.19103 181.338 9.05831 182.244C18.7632 186.948 30.2185 192.058 43 197.232C116.828 227.116 234.904 259.139 315.5 227.5C412.3 189.5 397.324 136.333 377.736 114.5Z" stroke="#A5A5A5" stroke-width="2"/>
<path d="M66.3037 99L86.9958 120.3" stroke="black" stroke-width="8" stroke-linecap="round"/>
<path d="M65.9999 119.996L87.2997 99.3039" stroke="black" stroke-width="8" stroke-linecap="round"/>
</svg>
