<svg width="626" height="293" viewBox="0 0 626 293" fill="none" xmlns="http://www.w3.org/2000/svg">
<path d="M469.407 66.1756L460.548 230.835L322.378 140.834L469.407 66.1756Z" fill="#A5A5A5"/>
<path d="M84.9004 57.9141C154.107 38.3454 270.17 41.5572 341.325 83.4658C356.799 92.5797 367.807 101.137 375.457 108.943C389.658 123.434 392.283 135.338 390.409 143.414C391.756 167.758 375.619 197.994 314.97 222.888C234.871 255.765 116.315 225.566 42.0357 196.822C29.176 191.846 17.6433 186.913 7.86707 182.359C5.98606 181.483 5.96116 178.835 7.81492 177.902L26.3487 168.579L44.8824 159.256C46.7361 158.324 46.7152 155.681 44.8307 154.812C30.7219 148.307 8.00692 138.962 2.67383 141.191C-4.77905 144.306 15.6937 77.4828 84.9004 57.9141Z" fill="#A5A5A5"/>
<path d="M385.883 151.787C392.338 145.376 395.949 129.853 375.457 108.943M375.457 108.943C367.807 101.137 356.799 92.5797 341.325 83.4658C270.17 41.5572 154.107 38.3454 84.9004 57.9141C15.6937 77.4828 -4.77905 144.306 2.67383 141.191C8.00692 138.962 30.7219 148.307 44.8307 154.812C46.7152 155.681 46.7361 158.324 44.8824 159.256L26.3487 168.579L7.81492 177.902C5.96116 178.835 5.98606 181.483 7.86707 182.359C17.6433 186.913 29.176 191.846 42.0357 196.822C116.315 225.566 234.871 255.765 314.97 222.888C411.173 183.401 395.379 130.472 375.457 108.943Z" stroke="#A5A5A5" stroke-width="2"/>
<circle cx="71.134" cy="105.632" r="12.5" transform="rotate(-0.8829 71.134 105.632)" fill="black"/>
</svg>
