<svg width="78" height="460" viewBox="0 0 78 460" fill="none" xmlns="http://www.w3.org/2000/svg">
<path d="M28.0568 342.93C35.1397 222.304 35.4826 105.042 33.8032 -2.00005" stroke="black" stroke-width="2"/>
<path d="M28.0922 344.577C28.0922 344.577 25.2997 359.04 24.2121 361.805C23.1245 364.569 18.5212 377.232 18.5212 377.232L12.3131 392.402L7.13954 405.258L4.81154 417.857L4.81153 426.599L5.8462 435.341L7.13954 443.826C7.13954 443.826 11.7428 449.676 13.8651 450.768C15.9874 451.861 20.5377 455.139 22.1427 455.139C23.7476 455.139 31.4549 455.139 31.4549 455.139C31.4549 455.139 37.1987 453.918 37.9218 453.597C38.6449 453.275 43.4069 448.518 44.9589 445.947C45.8261 444.511 46.6126 442.351 47.1378 440.726C48.5698 436.293 49.2858 434.076 49.3171 433.981C49.3483 433.887 48.0113 437.874 48.5461 436.279L48.5803 436.177L49.3564 433.863L49.8737 429.234L50.6497 422.806L51.1671 415.864" stroke="#C0C0C0" stroke-width="9"/>
<path d="M58.5778 388.547L48.2523 407.26L43.3375 416.26L38.6814 425.773L55.7539 416.774L56.0125 411.117L57.3059 399.29L58.5778 388.547Z" fill="#7E7E7E"/>
<circle cx="5.5" cy="5.5" r="5.5" transform="matrix(-1 0 0 1 33 338.471)" fill="#7E7E7E"/>
<circle cx="2.5" cy="2.5" r="2.5" transform="matrix(-1 0 0 1 30 341.471)" fill="black"/>
<path d="M54.9273 408.128C58.8217 410.012 64.4734 417.525 66.8125 421.045C69.841 425.604 74.1198 420.673 73.072 416.104C72.1283 411.988 63.2728 401.218 53.7581 398.704C44.2433 396.19 38.072 401.604 37.072 402.604C33.4785 406.197 39.3115 410.724 42.362 408.169C45.4126 405.614 50.0593 405.772 54.9273 408.128Z" fill="#FFB7B7"/>
</svg>
