<svg width="549" height="197" viewBox="0 0 549 197" fill="none" xmlns="http://www.w3.org/2000/svg">
<path d="M375 0.999999V98.9602C375 99.5278 375.472 99.9816 376.039 99.9595L472.436 96.1974C473.031 96.1742 473.475 95.6382 473.386 95.0487L466.084 46.7539C465.992 46.1489 466.46 45.6044 467.072 45.6044H468.767C469.218 45.6044 469.613 45.3029 469.731 44.8682L481.654 1.26375C481.828 0.627465 481.349 0 480.69 0H376C375.448 0 375 0.447714 375 0.999999Z" fill="#F5F3F4"/>
<rect x="366" width="11" height="8" rx="1" fill="#F5F3F4"/>
<rect x="381" y="10" width="23" height="28" rx="4" fill="#5F8CFF" stroke="black" stroke-width="2"/>
<rect x="416" y="10" width="23" height="28" rx="4" fill="#5F8CFF" stroke="black" stroke-width="2"/>
<path d="M461.73 38H454C451.791 38 450 36.2091 450 34V14C450 11.7909 451.791 10 454 10H467.646C470.319 10 472.239 12.5713 471.481 15.1345L465.566 35.1345C465.063 36.8339 463.502 38 461.73 38Z" fill="#5F8CFF" stroke="black" stroke-width="2"/>
<path d="M547.781 73.2911C543.554 97.261 525.418 154.191 519.5 171.5C509.131 204.558 231.674 195.538 87.9101 195.5C87.3842 195.5 86.9723 195.093 86.9365 194.568L81.0727 108.49C81.0333 107.913 81.4017 107.423 81.9807 107.421C142.919 107.216 415.879 88.3338 546.713 72.1596C547.375 72.0777 547.896 72.6339 547.781 73.2911Z" fill="#FF5555"/>
<path d="M230.5 122L234.5 101.5L253 99.5L258 122" stroke="#2541A4" stroke-width="6"/>
<path d="M294 117.5L296 98L321 95L325 117.5" stroke="#2541A4" stroke-width="6"/>
<path d="M359 113L361.632 93L385.316 91L389 109.5" stroke="#2541A4" stroke-width="6"/>
<path d="M424.063 106.093L425.582 87.2753L451 84L455.05 103.817" stroke="#2541A4" stroke-width="6"/>
<path d="M489 102L490.111 81L516.778 78L519 97.5" stroke="#2541A4" stroke-width="6"/>
<path d="M162.976 127.755L170 105.5L189.319 104.442L196.096 126.59" stroke="#2541A4" stroke-width="6"/>
<path d="M100 127L104.356 108.765L123.644 107L128 127" stroke="#2541A4" stroke-width="6"/>
<path fill-rule="evenodd" clip-rule="evenodd" d="M99 112.5C92.7545 112.769 86.9746 112.768 82.0012 112.959C81.4485 112.98 80.9808 112.551 80.9572 111.999L80.702 106.025C80.6784 105.474 81.1053 105.008 81.6562 104.983C86.6127 104.762 92.2359 104.52 98.4822 104.25C177.507 100.84 357.314 93.0803 547.164 70.1615C547.829 70.0812 548.386 70.6635 548.273 71.3234L547.42 76.291C547.345 76.7265 546.991 77.0616 546.553 77.1146C356.246 100.122 178.107 109.087 99 112.5Z" fill="black"/>
<path d="M119 109.5L35 9" stroke="black" stroke-width="5"/>
<path d="M35 11C33.1613 87.5464 26.2899 127.073 1 190" stroke="black" stroke-width="2"/>
<circle cx="115" cy="141" r="20" stroke="#171717" stroke-width="10"/>
<circle cx="180" cy="139" r="20" stroke="#171717" stroke-width="10"/>
<circle cx="245" cy="136" r="20" stroke="#171717" stroke-width="10"/>
<circle cx="310" cy="131" r="20" stroke="#171717" stroke-width="10"/>
<circle cx="375" cy="126" r="20" stroke="#171717" stroke-width="10"/>
<circle cx="440" cy="119" r="20" stroke="#171717" stroke-width="10"/>
<circle cx="505" cy="114" r="20" stroke="#171717" stroke-width="10"/>
</svg>
