<svg width="65" height="556" viewBox="0 0 65 556" fill="none" xmlns="http://www.w3.org/2000/svg">
<path d="M33.1842 556H31.8158H28.0526C20.4951 556 14.3684 549.921 14.3684 542.422V204.729C14.3684 199.198 10.4401 194.411 6.6862 189.837C5.5212 188.417 4.37299 187.018 3.36423 185.624C1.38462 182.887 0 179.058 0 173.792C0 160.091 1.33947 54.4427 2.03057 1.68318C2.04305 0.730537 2.82447 0 3.78468 0C4.72774 0 5.50215 0.739592 5.53813 1.67462L10.8368 139.352C10.8985 140.956 12.227 142.225 13.8449 142.225C15.471 142.225 16.8032 140.943 16.8537 139.331L21.163 1.52128C21.1895 0.673575 21.8897 0 22.7445 0C23.6037 0 24.3058 0.680273 24.3263 1.5325L27.5881 137.135C27.6534 139.851 29.8041 142.042 32.4996 142.214C35.1914 142.041 37.3352 139.847 37.3874 137.134L39.9967 1.53995C40.0131 0.684743 40.7166 0 41.5786 0C42.4305 0 43.1294 0.669108 43.1599 1.51375L48.1327 139.338C48.1908 140.949 49.5237 142.225 51.1482 142.225C52.7699 142.225 54.1016 140.953 54.1635 139.345L59.4619 1.67462C59.4979 0.739592 60.2723 0 61.2153 0C62.1755 0 62.957 0.730537 62.9694 1.68318C63.6605 54.4427 65 160.091 65 173.792C65 179.058 63.6154 182.887 61.6358 185.624C60.627 187.018 59.4788 188.417 58.3138 189.837C54.5599 194.411 50.6316 199.198 50.6316 204.729V542.422C50.6316 549.921 44.505 556 36.9474 556H33.1842Z" fill="#E1E1E1"/>
<path d="M33.1842 556H31.8158H28.0526C20.4951 556 14.3684 549.921 14.3684 542.422V204.729C14.3684 199.198 10.4401 194.411 6.6862 189.837C5.5212 188.417 4.37299 187.018 3.36423 185.624C1.38462 182.887 0 179.058 0 173.792C0 160.091 1.33947 54.4427 2.03057 1.68318C2.04305 0.730537 2.82447 0 3.78468 0C4.72774 0 5.50215 0.739592 5.53813 1.67462L10.8368 139.352C10.8985 140.956 12.227 142.225 13.8449 142.225C15.471 142.225 16.8032 140.943 16.8537 139.331L21.163 1.52128C21.1895 0.673575 21.8897 0 22.7445 0C23.6037 0 24.3058 0.680273 24.3263 1.5325L27.5881 137.135C27.6534 139.851 29.8041 142.042 32.4996 142.214C35.1914 142.041 37.3352 139.847 37.3874 137.134L39.9967 1.53995C40.0131 0.684743 40.7166 0 41.5786 0C42.4305 0 43.1294 0.669108 43.1599 1.51375L48.1327 139.338C48.1908 140.949 49.5237 142.225 51.1482 142.225C52.7699 142.225 54.1016 140.953 54.1635 139.345L59.4619 1.67462C59.4979 0.739592 60.2723 0 61.2153 0C62.1755 0 62.957 0.730537 62.9694 1.68318C63.6605 54.4427 65 160.091 65 173.792C65 179.058 63.6154 182.887 61.6358 185.624C60.627 187.018 59.4788 188.417 58.3138 189.837C54.5599 194.411 50.6316 199.198 50.6316 204.729V542.422C50.6316 549.921 44.505 556 36.9474 556H33.1842Z" stroke="#E1E1E1"/>
</svg>
